<?xml version="1.0" standalone="no"?>
<!DOCTYPE svg PUBLIC "-//W3C//DTD SVG 20010904//EN"
 "http://www.w3.org/TR/2001/REC-SVG-20010904/DTD/svg10.dtd">
<svg version="1.0" xmlns="http://www.w3.org/2000/svg"
 width="345.000000pt" height="345.000000pt" viewBox="0 0 345.000000 345.000000"
 preserveAspectRatio="xMidYMid meet">
<metadata>
Created by potrace 1.14, written by Peter Selinger 2001-2017
</metadata>
<g transform="translate(0.000000,345.000000) scale(0.100000,-0.100000)"
fill="#000000" stroke="none">
<path d="M1233 2695 c-145 -45 -240 -162 -250 -310 -5 -72 -2 -85 63 -255 l17
-45 -29 -47 -28 -47 -39 36 c-88 79 -207 105 -323 70 -72 -22 -104 -40 -150
-85 -94 -95 -125 -242 -77 -374 9 -27 21 -48 25 -48 4 0 8 -6 8 -13 0 -16 72
-87 126 -124 22 -15 99 -68 170 -116 306 -209 318 -218 319 -237 2 -18 12 -33
63 -88 30 -33 -1 -21 -65 24 -114 80 -234 163 -321 222 -46 31 -103 71 -127
89 -165 124 -323 142 -458 52 -124 -82 -181 -231 -143 -377 30 -117 94 -194
202 -244 49 -23 52 -23 647 -28 329 -3 601 -3 603 -1 2 2 -5 10 -16 18 -26 19
-25 27 6 48 22 14 28 15 47 3 34 -22 120 -56 158 -64 63 -12 183 -11 197 3 7
7 40 29 74 48 l61 36 24 -23 24 -23 -28 -23 -28 -22 605 2 c604 3 605 3 652
25 64 31 135 104 166 171 23 49 27 70 27 152 0 78 -5 104 -24 148 -13 28 -27
52 -31 52 -3 0 -12 11 -19 24 -19 34 -99 91 -156 111 -65 22 -147 22 -209 1
-27 -9 -86 -41 -130 -72 -190 -128 -362 -247 -441 -304 -76 -55 -81 -57 -46
-12 22 27 32 48 28 61 -4 17 34 47 241 188 136 92 272 193 303 224 69 69 99
140 99 233 0 144 -75 263 -205 323 -51 23 -73 28 -145 28 -73 -1 -93 -4 -140
-29 -30 -15 -65 -36 -76 -47 l-21 -20 -33 50 -32 51 36 89 c52 129 53 230 3
328 -27 52 -105 123 -165 151 -49 23 -70 27 -147 27 -76 0 -99 -5 -145 -27
-30 -14 -72 -42 -92 -62 l-38 -36 -25 49 c-25 51 -57 81 -86 81 -28 0 -70 -41
-95 -94 l-24 -52 -54 52 c-87 82 -222 114 -333 79z m566 -89 c21 -34 51 -139
51 -178 0 -14 -10 -36 -23 -50 l-23 -25 -13 28 c-7 16 -19 29 -27 29 -10 0
-13 14 -12 60 1 51 4 58 16 47 8 -6 21 -27 29 -46 23 -55 25 -29 3 42 -29 93
-58 118 -93 80 -13 -15 -24 -46 -53 -140 -2 -7 -8 -13 -14 -13 -31 0 16 150
61 192 25 24 32 26 54 16 14 -6 34 -25 44 -42z m-79 -126 c0 -27 -3 -49 -7
-49 -19 3 -47 -3 -35 -8 6 -2 10 -9 7 -14 -4 -5 -12 -4 -19 3 -10 9 -9 20 7
52 19 41 36 66 43 66 2 0 4 -22 4 -50z m110 -155 c0 -8 4 -15 9 -15 5 0 11
-55 13 -122 6 -134 -3 -161 -44 -150 -30 8 -58 34 -50 46 3 6 8 28 9 49 1 20
8 56 14 80 17 60 20 70 21 85 1 6 5 12 9 12 5 0 6 7 3 15 -4 8 -1 15 5 15 6 0
11 -7 11 -15z m-130 -105 c5 0 6 -7 3 -17 -4 -11 -3 -14 5 -9 7 4 12 5 12 2 0
-2 3 -13 6 -23 5 -15 4 -15 -5 -3 -8 12 -10 11 -8 -7 0 -12 5 -19 9 -17 10 6
11 -10 1 -20 -11 -10 -12 -37 -2 -30 5 3 9 0 9 -5 0 -6 -5 -11 -12 -11 -6 0
-8 -3 -5 -7 12 -11 -15 -33 -41 -33 -13 0 -31 8 -38 18 -19 24 -18 108 1 116
8 3 23 24 32 46 14 32 19 37 21 21 2 -12 7 -21 12 -21z"/>
</g>
</svg>
